# xmcd CD database file
#
# Track frame offsets:
#	150
#	15793
#	35590
#
# Disc length: 697 seconds
#
# Revision: 5
# Processed by: cddbd v1.5.2PL0 Copyright (c) Steve Scherf et al.
# Submitted via: CDex 1.86
#
DISCID=1402b703
DTITLE=Incubus - Are You In?
DYEAR=2001
DGENRE=Alternative Rock
TTITLE0=Are You In? (New Edit)
TTITLE1=Are You In? (Album Version)
TTITLE2=Are You In? (Paul Oakenfold Remix)
EXTD=YEAR: 2001
EXTT0=
EXTT1=
EXTT2=
PLAYORDER=
